<mxfile host="app.diagrams.net" modified="2020-08-29T08:49:54.014Z" agent="5.0 (Windows NT 10.0; Win64; x64) AppleWebKit/537.36 (KHTML, like Gecko) Chrome/84.0.4147.135 Safari/537.36" etag="2FSllYfP2MH0lLulZHh6" version="13.6.2" type="github">
  <diagram id="UTyAhirFjyfTks6gn7U7" name="Page-1">
    <mxGraphModel dx="1694" dy="976" grid="1" gridSize="10" guides="1" tooltips="1" connect="1" arrows="1" fold="1" page="1" pageScale="1" pageWidth="4681" pageHeight="3300" math="0" shadow="0">
      <root>
        <mxCell id="0" />
        <mxCell id="1" parent="0" />
        <mxCell id="6BlfWYlAVQmWLPlQeWkO-1" value="0x20000000&lt;br style=&quot;font-size: 8px;&quot;&gt;&lt;br style=&quot;font-size: 8px;&quot;&gt;&lt;span style=&quot;color: rgb(51, 51, 51); font-size: 8px; text-align: left; background-color: rgb(255, 255, 255);&quot;&gt;0x&lt;/span&gt;&lt;font color=&quot;#333333&quot; style=&quot;font-size: 8px;&quot;&gt;213FFFFF&lt;/font&gt;" style="rounded=0;whiteSpace=wrap;html=1;fontSize=8;fontFamily=Courier New;" vertex="1" parent="1">
          <mxGeometry x="40" y="40" width="100" height="50" as="geometry" />
        </mxCell>
        <mxCell id="6BlfWYlAVQmWLPlQeWkO-2" value="initrd-start" style="rounded=0;whiteSpace=wrap;html=1;fontFamily=Courier New;fontSize=8;" vertex="1" parent="1">
          <mxGeometry x="180" y="40" width="180" height="50" as="geometry" />
        </mxCell>
        <mxCell id="6BlfWYlAVQmWLPlQeWkO-3" value="20M" style="rounded=0;whiteSpace=wrap;html=1;fontSize=8;fontFamily=Courier New;" vertex="1" parent="1">
          <mxGeometry x="140" y="40" width="40" height="50" as="geometry" />
        </mxCell>
        <mxCell id="6BlfWYlAVQmWLPlQeWkO-4" value="0x2B000000&lt;br style=&quot;font-size: 8px;&quot;&gt;&lt;br style=&quot;font-size: 8px;&quot;&gt;&lt;span style=&quot;color: rgb(51, 51, 51); font-size: 8px; text-align: left; background-color: rgb(255, 255, 255);&quot;&gt;0x&lt;/span&gt;&lt;font color=&quot;#333333&quot; style=&quot;font-size: 8px;&quot;&gt;2&lt;/font&gt;BFFFFFF" style="rounded=0;whiteSpace=wrap;html=1;fontSize=8;fontFamily=Courier New;" vertex="1" parent="1">
          <mxGeometry x="40" y="140" width="100" height="50" as="geometry" />
        </mxCell>
        <mxCell id="6BlfWYlAVQmWLPlQeWkO-5" value="16M" style="rounded=0;whiteSpace=wrap;html=1;fontSize=8;fontFamily=Courier New;" vertex="1" parent="1">
          <mxGeometry x="140" y="140" width="40" height="50" as="geometry" />
        </mxCell>
        <mxCell id="6BlfWYlAVQmWLPlQeWkO-6" value="ION_SECURE_TP_PHYS_0" style="rounded=0;whiteSpace=wrap;html=1;fontFamily=Courier New;fontSize=8;" vertex="1" parent="1">
          <mxGeometry x="180" y="140" width="180" height="50" as="geometry" />
        </mxCell>
        <mxCell id="6BlfWYlAVQmWLPlQeWkO-7" value="0x2C000000&lt;br style=&quot;font-size: 8px;&quot;&gt;&lt;br style=&quot;font-size: 8px;&quot;&gt;&lt;span style=&quot;color: rgb(51, 51, 51); font-size: 8px; text-align: left; background-color: rgb(255, 255, 255);&quot;&gt;0x&lt;/span&gt;&lt;font color=&quot;#333333&quot; style=&quot;font-size: 8px;&quot;&gt;2C1FFFFF&lt;/font&gt;" style="rounded=0;whiteSpace=wrap;html=1;fontSize=8;fontFamily=Courier New;" vertex="1" parent="1">
          <mxGeometry x="40" y="190" width="100" height="50" as="geometry" />
        </mxCell>
        <mxCell id="6BlfWYlAVQmWLPlQeWkO-8" value="2M" style="rounded=0;whiteSpace=wrap;html=1;fontSize=8;fontFamily=Courier New;" vertex="1" parent="1">
          <mxGeometry x="140" y="190" width="40" height="50" as="geometry" />
        </mxCell>
        <mxCell id="6BlfWYlAVQmWLPlQeWkO-9" value="&lt;span style=&quot;font-size: 8px;&quot;&gt;Audio/TEE RPC for watermark&lt;span style=&quot;font-size: 8px;&quot;&gt;	&lt;/span&gt;&lt;/span&gt;" style="rounded=0;whiteSpace=wrap;html=1;fontFamily=Courier New;fontSize=8;" vertex="1" parent="1">
          <mxGeometry x="180" y="190" width="180" height="50" as="geometry" />
        </mxCell>
        <mxCell id="6BlfWYlAVQmWLPlQeWkO-10" value="0x2C200000&lt;br style=&quot;font-size: 8px;&quot;&gt;&lt;br style=&quot;font-size: 8px;&quot;&gt;&lt;span style=&quot;color: rgb(51, 51, 51); font-size: 8px; text-align: left; background-color: rgb(255, 255, 255);&quot;&gt;0x&lt;/span&gt;&lt;font color=&quot;#333333&quot; style=&quot;font-size: 8px;&quot;&gt;2C3FFFFF&lt;/font&gt;" style="rounded=0;whiteSpace=wrap;html=1;fontSize=8;fontFamily=Courier New;" vertex="1" parent="1">
          <mxGeometry x="40" y="240" width="100" height="50" as="geometry" />
        </mxCell>
        <mxCell id="6BlfWYlAVQmWLPlQeWkO-11" value="2M" style="rounded=0;whiteSpace=wrap;html=1;fontSize=8;fontFamily=Courier New;" vertex="1" parent="1">
          <mxGeometry x="140" y="240" width="40" height="50" as="geometry" />
        </mxCell>
        <mxCell id="6BlfWYlAVQmWLPlQeWkO-12" value="&lt;span style=&quot;font-size: 8px;&quot;&gt;ION_SECURE_AUDIO_PHYS_0&lt;span style=&quot;font-size: 8px;&quot;&gt;	&lt;/span&gt;&lt;/span&gt;" style="rounded=0;whiteSpace=wrap;html=1;fontFamily=Courier New;fontSize=8;" vertex="1" parent="1">
          <mxGeometry x="180" y="240" width="180" height="50" as="geometry" />
        </mxCell>
        <mxCell id="6BlfWYlAVQmWLPlQeWkO-13" value="0x2C400000&lt;br style=&quot;font-size: 8px;&quot;&gt;&lt;br style=&quot;font-size: 8px;&quot;&gt;&lt;span style=&quot;color: rgb(51, 51, 51); font-size: 8px; text-align: left; background-color: rgb(255, 255, 255);&quot;&gt;0x&lt;/span&gt;&lt;font color=&quot;#333333&quot; style=&quot;font-size: 8px;&quot;&gt;2C4FFFFF&lt;/font&gt;" style="rounded=0;whiteSpace=wrap;html=1;fontSize=8;fontFamily=Courier New;" vertex="1" parent="1">
          <mxGeometry x="40" y="290" width="100" height="50" as="geometry" />
        </mxCell>
        <mxCell id="6BlfWYlAVQmWLPlQeWkO-14" value="1M" style="rounded=0;whiteSpace=wrap;html=1;fontSize=8;fontFamily=Courier New;" vertex="1" parent="1">
          <mxGeometry x="140" y="290" width="40" height="50" as="geometry" />
        </mxCell>
        <mxCell id="6BlfWYlAVQmWLPlQeWkO-15" value="&lt;span style=&quot;font-size: 8px;&quot;&gt;ION_SECURE_MD_PHYS_0&lt;span style=&quot;font-size: 8px;&quot;&gt;	&lt;/span&gt;&lt;/span&gt;" style="rounded=0;whiteSpace=wrap;html=1;fontFamily=Courier New;fontSize=8;" vertex="1" parent="1">
          <mxGeometry x="180" y="290" width="180" height="50" as="geometry" />
        </mxCell>
        <mxCell id="6BlfWYlAVQmWLPlQeWkO-16" value="0x2C500000&lt;br style=&quot;font-size: 8px;&quot;&gt;&lt;br style=&quot;font-size: 8px;&quot;&gt;&lt;span style=&quot;color: rgb(51, 51, 51); font-size: 8px; text-align: left; background-color: rgb(255, 255, 255);&quot;&gt;0x3C6&lt;/span&gt;&lt;font color=&quot;#333333&quot; style=&quot;font-size: 8px;&quot;&gt;FFFFF&lt;/font&gt;" style="rounded=0;whiteSpace=wrap;html=1;fontSize=8;fontFamily=Courier New;" vertex="1" parent="1">
          <mxGeometry x="40" y="340" width="100" height="50" as="geometry" />
        </mxCell>
        <mxCell id="6BlfWYlAVQmWLPlQeWkO-17" value="258M" style="rounded=0;whiteSpace=wrap;html=1;fontSize=8;fontFamily=Courier New;" vertex="1" parent="1">
          <mxGeometry x="140" y="340" width="40" height="50" as="geometry" />
        </mxCell>
        <mxCell id="6BlfWYlAVQmWLPlQeWkO-18" value="&lt;span style=&quot;font-size: 8px;&quot;&gt;ION_SECURE_HEAP_PHYS_0&lt;/span&gt;" style="rounded=0;whiteSpace=wrap;html=1;fontFamily=Courier New;fontSize=8;" vertex="1" parent="1">
          <mxGeometry x="180" y="340" width="180" height="50" as="geometry" />
        </mxCell>
        <mxCell id="6BlfWYlAVQmWLPlQeWkO-19" value="0x21400000&lt;br style=&quot;font-size: 8px;&quot;&gt;&lt;br style=&quot;font-size: 8px;&quot;&gt;&lt;span style=&quot;color: rgb(51, 51, 51); font-size: 8px; text-align: left; background-color: rgb(255, 255, 255);&quot;&gt;0x&lt;/span&gt;&lt;font color=&quot;#333333&quot; style=&quot;font-size: 8px;&quot;&gt;2AFFFFFF&lt;/font&gt;" style="rounded=0;whiteSpace=wrap;html=1;fontSize=8;fontFamily=Courier New;" vertex="1" parent="1">
          <mxGeometry x="40" y="90" width="100" height="50" as="geometry" />
        </mxCell>
        <mxCell id="6BlfWYlAVQmWLPlQeWkO-20" value="156M" style="rounded=0;whiteSpace=wrap;html=1;fontSize=8;fontFamily=Courier New;" vertex="1" parent="1">
          <mxGeometry x="140" y="90" width="40" height="50" as="geometry" />
        </mxCell>
        <mxCell id="6BlfWYlAVQmWLPlQeWkO-21" value="Free" style="rounded=0;whiteSpace=wrap;html=1;fontFamily=Courier New;fontSize=8;" vertex="1" parent="1">
          <mxGeometry x="180" y="90" width="180" height="50" as="geometry" />
        </mxCell>
        <mxCell id="6BlfWYlAVQmWLPlQeWkO-23" value="&lt;span style=&quot;font-size: 8px&quot;&gt;0x32b00000 VIDEO_PROTECT_POOL_START&lt;/span&gt;&lt;br style=&quot;font-size: 8px&quot;&gt;&lt;br&gt;&lt;br&gt;&lt;br style=&quot;font-size: 8px&quot;&gt;&lt;br style=&quot;font-size: 8px&quot;&gt;&lt;span style=&quot;font-size: 8px&quot;&gt;0x40000000 VIDEO_PROTECT_POOL_END&lt;/span&gt;" style="rounded=0;whiteSpace=wrap;html=1;fontFamily=Courier New;fontSize=8;align=left;fillColor=#dae8fc;strokeColor=#6c8ebf;" vertex="1" parent="1">
          <mxGeometry x="630" y="400" width="270" height="100" as="geometry" />
        </mxCell>
        <mxCell id="6BlfWYlAVQmWLPlQeWkO-24" value="&lt;span style=&quot;font-size: 8px&quot;&gt;0x31600000&amp;nbsp;VIDEO_SCRAMBLE_POOL_START&lt;/span&gt;&lt;br style=&quot;font-size: 8px&quot;&gt;&lt;br style=&quot;font-size: 8px&quot;&gt;&lt;br&gt;&lt;br&gt;&lt;br&gt;&lt;br&gt;&lt;br style=&quot;font-size: 8px&quot;&gt;&lt;span style=&quot;font-size: 8px&quot;&gt;0x4A700000&amp;nbsp;VIDEO_SCRAMBLE_POOL_END&lt;/span&gt;" style="rounded=0;whiteSpace=wrap;html=1;fontFamily=Courier New;fontSize=8;align=left;fillColor=#dae8fc;strokeColor=#6c8ebf;" vertex="1" parent="1">
          <mxGeometry x="360" y="380" width="270" height="140" as="geometry" />
        </mxCell>
        <mxCell id="6BlfWYlAVQmWLPlQeWkO-26" value="&lt;span style=&quot;font-size: 8px&quot;&gt;0x2B000000&amp;nbsp;&lt;/span&gt;&lt;span style=&quot;font-size: 8px&quot;&gt;SECURE_MEM_BASE&lt;/span&gt;&lt;br style=&quot;font-size: 8px&quot;&gt;&lt;br&gt;&lt;br&gt;&lt;br&gt;&lt;br&gt;&lt;br&gt;&lt;br&gt;&lt;br&gt;&lt;br&gt;&lt;br style=&quot;font-size: 8px&quot;&gt;&lt;br style=&quot;font-size: 8px&quot;&gt;&lt;span style=&quot;font-size: 8px&quot;&gt;0x2C400000&amp;nbsp;&lt;/span&gt;&lt;span style=&quot;font-size: 8px&quot;&gt;SECURE_MEM_LIMIT&lt;/span&gt;" style="rounded=0;whiteSpace=wrap;html=1;fontFamily=Courier New;fontSize=8;align=left;fillColor=#e1d5e7;strokeColor=#9673a6;" vertex="1" parent="1">
          <mxGeometry x="900" y="140" width="210" height="190" as="geometry" />
        </mxCell>
        <mxCell id="6BlfWYlAVQmWLPlQeWkO-27" value="&lt;span style=&quot;font-size: 8px&quot;&gt;0x2C500000&amp;nbsp;&lt;/span&gt;&lt;span style=&quot;font-size: 8px&quot;&gt;SECURE_MEM_BASE1&lt;/span&gt;&lt;br style=&quot;font-size: 8px&quot;&gt;&lt;br style=&quot;font-size: 8px&quot;&gt;&lt;span style=&quot;font-size: 8px&quot;&gt;0x3C700000&amp;nbsp;&lt;/span&gt;&lt;span style=&quot;font-size: 8px&quot;&gt;SECURE_MEM_LIMIT1&lt;/span&gt;" style="rounded=0;whiteSpace=wrap;html=1;fontFamily=Courier New;fontSize=8;align=left;fillColor=#e1d5e7;strokeColor=#9673a6;" vertex="1" parent="1">
          <mxGeometry x="900" y="340" width="210" height="50" as="geometry" />
        </mxCell>
        <mxCell id="6BlfWYlAVQmWLPlQeWkO-28" value="&lt;span style=&quot;font-size: 8px&quot;&gt;0x2C200000&amp;nbsp;&lt;/span&gt;&lt;span style=&quot;font-size: 8px&quot;&gt;BUFFER_PROTECT_POOL_START&lt;/span&gt;&lt;br style=&quot;font-size: 8px&quot;&gt;&lt;br&gt;&lt;br&gt;&lt;br&gt;&lt;br&gt;&lt;br&gt;&lt;br&gt;&lt;br style=&quot;font-size: 8px&quot;&gt;&lt;br style=&quot;font-size: 8px&quot;&gt;&lt;span style=&quot;font-size: 8px&quot;&gt;0x3C700000&amp;nbsp;&lt;/span&gt;&lt;span style=&quot;font-size: 8px&quot;&gt;BUFFER_PROTECT_POOL_END&lt;/span&gt;" style="rounded=0;whiteSpace=wrap;html=1;fontFamily=Courier New;fontSize=8;align=left;fillColor=#fff2cc;strokeColor=#d6b656;" vertex="1" parent="1">
          <mxGeometry x="1110" y="240" width="290" height="150" as="geometry" />
        </mxCell>
        <mxCell id="6BlfWYlAVQmWLPlQeWkO-29" value="&lt;span style=&quot;font-size: 8px&quot;&gt;0x2C000000&amp;nbsp;&lt;/span&gt;&lt;span style=&quot;font-size: 8px&quot;&gt;WATERMARK_PROTECT_POOL_START&lt;/span&gt;&lt;br style=&quot;font-size: 8px&quot;&gt;&lt;br style=&quot;font-size: 8px&quot;&gt;&lt;span style=&quot;font-size: 8px&quot;&gt;0x2C200000&amp;nbsp;&lt;/span&gt;&lt;span style=&quot;font-size: 8px&quot;&gt;WATERMARK_PROTECT_POOL_END&lt;/span&gt;" style="rounded=0;whiteSpace=wrap;html=1;fontFamily=Courier New;fontSize=8;align=left;fillColor=#fff2cc;strokeColor=#d6b656;" vertex="1" parent="1">
          <mxGeometry x="1110" y="190" width="290" height="50" as="geometry" />
        </mxCell>
        <mxCell id="6BlfWYlAVQmWLPlQeWkO-30" value="&lt;span style=&quot;font-size: 8px&quot;&gt;0x2C200000&amp;nbsp;&lt;/span&gt;&lt;span style=&quot;font-size: 8px&quot;&gt;BUFFER_PROTECT_POOL_START&lt;/span&gt;&lt;br style=&quot;font-size: 8px&quot;&gt;&lt;br&gt;&lt;br&gt;&lt;br&gt;&lt;br&gt;&lt;br&gt;&lt;br&gt;&lt;br style=&quot;font-size: 8px&quot;&gt;&lt;span style=&quot;font-size: 8px&quot;&gt;0x3C500000&amp;nbsp;BUFFER_PROTECT_POOL_END&lt;/span&gt;" style="rounded=0;whiteSpace=wrap;html=1;fontFamily=Courier New;fontSize=8;align=left;fillColor=#ffe6cc;strokeColor=#d79b00;" vertex="1" parent="1">
          <mxGeometry x="1400" y="240" width="290" height="140" as="geometry" />
        </mxCell>
        <mxCell id="6BlfWYlAVQmWLPlQeWkO-31" value="&lt;span style=&quot;font-size: 8px&quot;&gt;0x32600000&amp;nbsp;&lt;/span&gt;&lt;span style=&quot;font-size: 8px&quot;&gt;WATERMARK_PROTECT_POOL_START&lt;/span&gt;&lt;br style=&quot;font-size: 8px&quot;&gt;&lt;br style=&quot;font-size: 8px&quot;&gt;&lt;span style=&quot;font-size: 8px&quot;&gt;0x32800000&amp;nbsp;&lt;/span&gt;&lt;span style=&quot;font-size: 8px&quot;&gt;WATERMARK_PROTECT_POOL_END&lt;/span&gt;" style="rounded=0;whiteSpace=wrap;html=1;fontFamily=Courier New;fontSize=8;align=left;fillColor=#ffe6cc;strokeColor=#d79b00;" vertex="1" parent="1">
          <mxGeometry x="1690" y="310" width="290" height="50" as="geometry" />
        </mxCell>
        <mxCell id="6BlfWYlAVQmWLPlQeWkO-32" value="" style="endArrow=none;html=1;fontFamily=Courier New;fontSize=8;" edge="1" parent="1">
          <mxGeometry width="50" height="50" relative="1" as="geometry">
            <mxPoint x="360" y="140" as="sourcePoint" />
            <mxPoint x="1980" y="140" as="targetPoint" />
          </mxGeometry>
        </mxCell>
        <mxCell id="6BlfWYlAVQmWLPlQeWkO-33" value="" style="endArrow=none;html=1;fontFamily=Courier New;fontSize=8;" edge="1" parent="1">
          <mxGeometry width="50" height="50" relative="1" as="geometry">
            <mxPoint x="360" y="239.17" as="sourcePoint" />
            <mxPoint x="1980" y="239" as="targetPoint" />
          </mxGeometry>
        </mxCell>
        <mxCell id="6BlfWYlAVQmWLPlQeWkO-34" value="" style="endArrow=none;html=1;fontFamily=Courier New;fontSize=8;" edge="1" parent="1">
          <mxGeometry width="50" height="50" relative="1" as="geometry">
            <mxPoint x="360" y="390.0000000000001" as="sourcePoint" />
            <mxPoint x="1980" y="390" as="targetPoint" />
          </mxGeometry>
        </mxCell>
        <mxCell id="6BlfWYlAVQmWLPlQeWkO-35" value="" style="endArrow=none;html=1;fontFamily=Courier New;fontSize=8;" edge="1" parent="1">
          <mxGeometry width="50" height="50" relative="1" as="geometry">
            <mxPoint x="360" y="189.17" as="sourcePoint" />
            <mxPoint x="1980.0000000000005" y="189.17" as="targetPoint" />
          </mxGeometry>
        </mxCell>
        <mxCell id="6BlfWYlAVQmWLPlQeWkO-36" value="DTS" style="text;html=1;strokeColor=none;fillColor=none;align=center;verticalAlign=middle;whiteSpace=wrap;rounded=0;fontFamily=Courier New;fontSize=24;" vertex="1" parent="1">
          <mxGeometry x="40" width="320" height="40" as="geometry" />
        </mxCell>
        <mxCell id="6BlfWYlAVQmWLPlQeWkO-37" value="FSBL" style="text;html=1;strokeColor=none;fillColor=none;align=center;verticalAlign=middle;whiteSpace=wrap;rounded=0;fontFamily=Courier New;fontSize=24;" vertex="1" parent="1">
          <mxGeometry x="360" width="540" height="40" as="geometry" />
        </mxCell>
        <mxCell id="6BlfWYlAVQmWLPlQeWkO-38" value="AUDIO FW" style="text;html=1;strokeColor=none;fillColor=none;align=center;verticalAlign=middle;whiteSpace=wrap;rounded=0;fontFamily=Courier New;fontSize=24;" vertex="1" parent="1">
          <mxGeometry x="900" width="210" height="40" as="geometry" />
        </mxCell>
        <mxCell id="6BlfWYlAVQmWLPlQeWkO-39" value="TEEOS" style="text;html=1;strokeColor=none;fillColor=none;align=center;verticalAlign=middle;whiteSpace=wrap;rounded=0;fontFamily=Courier New;fontSize=24;" vertex="1" parent="1">
          <mxGeometry x="1110" width="290" height="40" as="geometry" />
        </mxCell>
        <mxCell id="6BlfWYlAVQmWLPlQeWkO-40" value="TEEApi" style="text;html=1;strokeColor=none;fillColor=none;align=center;verticalAlign=middle;whiteSpace=wrap;rounded=0;fontFamily=Courier New;fontSize=24;" vertex="1" parent="1">
          <mxGeometry x="1400" width="580" height="40" as="geometry" />
        </mxCell>
      </root>
    </mxGraphModel>
  </diagram>
</mxfile>
